<svg width="44" height="38" viewBox="0 0 44 38" fill="none" xmlns="http://www.w3.org/2000/svg">
<path fill-rule="evenodd" clip-rule="evenodd" d="M38.2655 16.9506L35.1378 18.0481L34.1816 15.6265L37.2873 14.5028C37.3136 11.393 42.0598 10.1474 43.389 13.5228C44.7181 16.8983 40.3227 19.0368 38.2655 16.9506ZM35.4054 6.80673C31.0189 6.61073 31.4882 0.378088 35.616 0.561017C39.7437 0.743945 39.4454 6.98966 35.4054 6.80673V6.80673ZM21.1272 19.1109C17.0651 17.7635 13.2698 15.7253 9.91072 13.0873C10.5783 12.4496 11.3137 11.8859 12.104 11.4061C14.6651 13.4078 17.505 15.0304 20.535 16.2232L22.0396 14.8295C19.221 13.7081 16.5657 12.2184 14.1438 10.4C15.9604 9.69573 17.8962 9.34384 19.8463 9.36337C22.0989 9.32673 24.3291 9.81137 26.3603 10.7789L31.0013 6.42345L32.6945 8.16562L21.1272 19.1109ZM19.4296 20.718L17.596 22.4602C13.8575 21.1099 10.3831 19.1264 7.32704 16.5978C7.72709 15.8207 8.2 15.0828 8.73951 14.3939C11.9582 17.0295 15.563 19.162 19.4296 20.718V20.718ZM33.1507 27.2947C32.9389 28.0898 32.6616 28.8663 32.3217 29.6162C24.4039 29.2895 13.4595 26.7721 5.91457 20.7485C6.06777 19.8915 6.29525 19.0492 6.59448 18.2311C14.1218 24.3722 24.7154 26.9942 33.1507 27.2947V27.2947ZM5.66892 22.7433C7.91416 24.3847 10.3321 25.7793 12.8804 26.9028L8.05521 31.4498C7.35069 30.4312 6.79261 29.32 6.39709 28.1484L0.0102539 30.4089L0.312927 27.8958L5.86193 25.8836C5.68802 24.8463 5.62334 23.7939 5.66892 22.7433V22.7433ZM6.54623 32.9176L1.54555 37.4429L1.10689 34.6685L5.0548 31.0927L6.54623 32.9176ZM17.381 28.6319L11.0688 34.503C10.4613 34.0634 9.89599 33.5692 9.37995 33.0265L14.9202 27.7521C15.7273 28.0657 16.5432 28.3618 17.3591 28.6319H17.381ZM22.4782 30.0735L15.758 36.659C14.8634 36.4338 13.9924 36.1246 13.1568 35.7356L19.7059 29.3549C20.6359 29.6133 21.56 29.8528 22.4782 30.0735ZM31.4049 31.3453C29.2116 34.773 25.4742 37.2121 20.1533 37.2121C19.4203 37.2101 18.688 37.1665 17.9601 37.0814L24.7066 30.5091C26.92 30.9204 29.1571 31.1938 31.4049 31.3279V31.3453ZM33.4973 25.5743C32.3918 25.5395 31.2338 25.4611 30.0363 25.3391L33.5894 21.8809C33.7 23.1057 33.6691 24.3391 33.4973 25.5569V25.5743ZM19.7059 23.1876L29.9441 13.4531C30.5209 14.0672 31.0365 14.7353 31.4838 15.4479L22.3686 23.9759C21.4708 23.7349 20.5832 23.4721 19.7059 23.1876ZM33.1902 19.5595L27.6237 25.0168C26.663 24.8731 25.6848 24.7033 24.6978 24.4985L32.3392 17.0594C32.7007 17.8655 32.9885 18.7022 33.199 19.5595H33.1902Z" fill="url(#paint0_linear)"/>
<defs>
<linearGradient id="paint0_linear" x1="21.8226" y1="0.557068" x2="21.8226" y2="37.4429" gradientUnits="userSpaceOnUse">
<stop stop-color="#2C274E"/>
<stop offset="1" stop-color="#827D9D"/>
</linearGradient>
</defs>
</svg>
