<svg width="267" height="169" viewBox="0 0 267 169" fill="none" xmlns="http://www.w3.org/2000/svg">
<path fill-rule="evenodd" clip-rule="evenodd" d="M183.813 98.3755C187.312 98.3755 190.194 101.257 190.194 104.55C190.194 108.05 187.311 110.931 183.813 110.931C180.519 110.931 177.639 108.05 177.639 104.55C177.639 101.257 180.52 98.3755 183.813 98.3755ZM183.813 97.9646C180.313 97.9646 177.226 100.846 177.226 104.551C177.226 108.257 180.314 111.345 183.813 111.345C187.518 111.345 190.606 108.257 190.606 104.551C190.606 100.845 187.518 97.9646 183.813 97.9646Z" fill="#0C0E0F"/>
<path fill-rule="evenodd" clip-rule="evenodd" d="M182.373 104.345V102.08H183.402C184.843 102.08 185.256 102.493 185.256 103.316C185.256 104.139 184.843 104.346 183.402 104.346H182.373V104.345ZM181.548 101.463V107.844H182.372V105.168H182.578C184.018 105.168 184.43 105.374 185.459 107.844H186.49C185.459 105.581 185.459 105.374 184.431 104.963C185.873 104.756 186.284 103.932 186.284 103.315C186.284 102.08 185.46 101.462 184.019 101.462H181.548V101.463ZM140.175 78.8212C136.881 79.6439 130.501 80.0565 123.708 77.3805C124.738 74.2928 127.413 68.3237 133.383 63.7953C135.441 66.265 139.352 71.6169 140.175 78.8212ZM164.464 59.0606H164.259C158.495 55.3557 150.879 53.0915 141.617 55.1494C128.236 58.2371 122.267 69.9699 120.62 75.7335C119.797 75.3218 118.973 74.7037 118.151 74.0873C118.356 74.2936 118.562 74.2936 118.562 74.2936C119.386 70.177 122.884 58.6497 135.236 53.2978C146.557 48.5631 162.407 51.0336 170.845 64.4133C171.052 65.0305 171.258 64.6188 171.052 64.4133C165.288 51.2399 149.645 43.0057 133.383 49.1811C120.415 54.1213 116.298 68.1182 115.886 72.2349C115.68 72.0294 115.269 71.8232 115.063 71.4122C114.651 71.2059 114.445 70.795 114.034 70.3824C114.651 64.6188 118.151 52.4751 130.295 46.7106C141.204 41.5642 157.055 43.6229 166.111 56.5909C166.318 57.0027 166.522 56.7972 166.318 56.3847C160.141 43.4167 144.087 36.0068 128.236 42.7994C115.68 47.9451 112.387 61.5303 111.563 67.5002C110.946 66.4713 110.534 65.6478 109.917 64.8243C110.328 56.7964 114.239 45.2691 126.384 39.5055C137.499 34.359 153.143 36.6232 161.993 49.5912C162.406 50.003 162.61 49.7967 162.406 49.3849C156.231 36.6232 140.175 29.0071 124.324 35.7997C111.974 40.9453 108.475 53.7079 107.857 60.0887C107.155 58.1591 106.672 56.1569 106.416 54.1196C106.828 49.3849 110.121 38.0639 122.266 32.5066C133.381 27.3601 148.612 29.2134 157.67 41.9751C158.083 42.3869 158.083 42.1814 157.876 41.9751C150.671 28.8016 136.056 22.0082 120.208 28.8017C114.033 31.2721 110.122 35.5943 107.651 40.1227C106.622 41.9751 105.593 44.2393 104.975 46.9153C104.357 49.1795 104.152 51.2382 104.152 52.4735V52.6789C103.74 59.4715 105.593 67.2939 111.974 74.292C121.443 84.5832 134.616 83.7605 140.381 82.319C140.381 83.1425 140.381 84.1714 140.175 85.2012C140.175 84.9949 139.968 84.7895 139.968 84.7895C136.057 86.2302 124.324 88.9061 113.621 80.8783C103.947 73.4685 98.1837 58.6472 105.594 44.6502C105.8 44.033 105.387 44.033 105.387 44.2385C96.7422 55.9712 97.5657 73.6739 110.945 84.5823C121.648 93.2274 135.852 89.9334 139.761 88.2872C139.557 88.4935 139.557 88.9045 139.35 89.3162C139.35 89.7288 139.144 90.1397 138.939 90.5515C133.587 93.0211 121.443 96.1105 110.533 88.4944C100.447 81.4955 94.2708 66.8805 101.064 52.6781C101.27 52.0609 100.858 52.0609 100.858 52.2663C92.6247 64.2045 94.2708 81.9072 108.062 92.1993C118.766 100.433 132.146 96.5214 137.498 94.258C137.087 95.287 136.674 96.1105 136.263 96.9323C129.058 100.637 117.119 103.109 106.004 95.4924C96.1233 88.4935 90.1542 73.6731 96.9468 59.4698C97.1522 59.0581 96.9468 59.0581 96.7405 59.2635C88.7126 71.2026 90.1542 88.9045 103.945 99.1973C114.442 107.224 127.205 103.931 133.174 101.254C131.528 103.109 129.881 104.548 128.439 105.578C123.911 107.635 112.795 110.107 102.092 102.491C92.2121 95.4916 86.0367 81.2883 92.6238 67.0851C92.8301 66.6734 92.6238 66.6733 92.4175 66.8788C84.8014 79.6405 86.0367 95.6962 99.8273 106.195C105.179 110.31 111.148 111.341 116.088 111.341C118.559 111.341 121.647 110.928 124.528 109.899C126.174 109.487 127.616 108.869 128.645 108.253C128.645 108.253 128.851 108.253 128.851 108.047C134.82 104.959 140.584 99.1957 143.466 90.3452C147.582 77.1709 140.378 66.2616 136.055 61.9387C136.878 61.5269 137.702 61.1152 138.731 60.7034C138.524 60.7034 138.524 60.9089 138.524 60.9089C141.818 63.5848 149.847 72.4362 148.199 85.8159C146.758 97.9604 136.672 110.31 120.822 110.928C120.205 110.928 120.617 111.134 120.822 111.34C135.026 112.78 150.052 103.311 152.727 86.2268C154.991 72.6416 145.111 61.9387 141.613 59.6736C142.024 59.4673 142.23 59.2619 142.642 59.2619C143.053 59.0564 143.671 59.0564 144.083 58.8501C148.817 62.3496 157.668 71.4064 156.433 84.7861C155.404 96.9298 145.936 109.692 130.086 110.723C129.469 110.928 129.675 111.134 130.086 111.134C144.289 112.163 158.904 102.076 160.962 84.9916C162.609 71.6127 152.729 61.9378 147.995 58.2329H150.877C157.669 62.5559 165.903 71.6127 164.667 84.9916C163.638 97.1361 153.964 109.692 138.114 110.928C137.497 110.928 137.703 111.134 138.114 111.134C152.318 112.163 166.931 102.076 168.989 84.9916C170.637 71.8181 161.373 62.3496 156.229 58.6447C158.492 59.0564 160.551 59.6744 162.197 60.4971C166.108 63.3785 173.929 71.8181 172.901 84.9916C171.872 97.1361 162.403 109.486 146.965 110.723C146.347 110.928 146.554 111.134 146.758 111.134C161.786 111.34 174.959 102.076 177.018 84.9916C178.874 71.2051 168.992 61.942 164.464 59.0606ZM125.355 127.399C125.355 127.193 125.56 127.193 125.767 127.193H129.06C129.472 127.193 129.678 127.193 129.678 127.399H129.06C128.443 127.399 128.237 127.812 128.237 128.223V141.19C128.237 142.425 129.06 142.221 131.119 142.221H133.589C134.001 142.221 134.619 142.014 135.03 140.985C135.236 140.779 135.236 140.573 135.236 140.573C135.236 140.368 135.236 140.368 135.441 140.368V140.779C135.236 141.602 135.03 141.808 135.03 142.631C135.03 142.838 134.824 142.838 134.824 142.838H125.149C125.149 142.631 125.149 142.631 125.355 142.631C125.767 142.631 126.59 142.631 126.59 141.602V128.429C126.59 127.812 126.385 127.398 125.767 127.398L125.355 127.399ZM140.382 127.399C140.175 127.399 139.969 127.399 139.969 127.193H142.852C143.263 127.193 143.263 127.399 143.263 127.812C144.292 131.104 145.116 133.78 147.585 140.162C148.82 137.28 151.085 131.722 152.32 127.812C152.525 127.193 152.525 127.193 152.937 127.193H154.994C155.407 127.193 155.407 127.193 155.407 127.399H154.994C154.377 127.399 153.965 127.812 153.965 128.841C154.172 131.517 154.994 140.779 155.2 141.397C155.2 141.808 155.2 142.632 156.231 142.632H156.642C156.642 142.839 156.436 142.839 156.231 142.839H152.938C152.732 142.839 152.321 142.839 152.321 142.632H152.732C153.555 142.632 153.555 142.426 153.555 141.397C153.349 139.134 152.525 129.87 152.525 129.459C152.32 129.87 147.584 142.426 147.378 142.632C147.378 142.839 147.378 143.043 147.173 143.043C146.967 143.043 146.967 142.632 146.967 142.426C146.761 142.426 142.645 130.076 142.439 129.87C141.822 134.398 141.41 140.986 141.41 141.603C141.41 142.632 142.027 142.632 142.439 142.632H142.645C142.645 142.839 142.439 142.839 142.439 142.839H139.145C139.145 142.632 139.351 142.632 139.557 142.632C140.175 142.632 140.586 142.015 140.586 141.191C141.204 137.281 141.617 129.87 141.617 128.43C141.617 127.399 140.793 127.399 140.382 127.399ZM166.729 127.606C166.729 127.193 166.933 126.988 167.14 126.988C167.346 126.988 167.346 127.399 167.552 127.606L171.874 141.19C172.491 142.221 173.109 142.425 173.52 142.631H173.931C173.931 142.838 173.727 142.838 173.314 142.838H170.433C170.022 142.838 169.815 142.838 169.815 142.631H170.226C170.433 142.631 170.639 142.425 170.639 142.014C170.022 139.955 168.787 136.663 168.787 136.457C168.58 136.251 168.787 136.251 168.374 136.251C167.757 136.046 165.493 136.046 164.875 136.251C164.669 136.251 164.463 136.251 164.463 136.457C164.463 136.663 163.227 140.368 163.023 141.397C163.023 142.221 163.434 142.632 164.052 142.632H164.258C164.258 142.839 164.258 142.839 163.846 142.839H160.758C160.553 142.839 160.347 142.839 160.347 142.632H160.758C161.581 142.632 161.788 142.015 161.993 141.191L166.729 127.606ZM164.876 135.222C164.876 135.426 164.876 135.426 165.081 135.426H168.17C168.375 135.426 168.375 135.426 168.375 135.222L166.729 129.664L164.876 135.222ZM180.108 127.192H177.639C177.639 127.398 177.843 127.398 178.05 127.398C178.667 127.398 179.285 127.605 179.285 128.429V141.602C179.285 142.424 178.874 142.631 178.05 142.631H177.843C177.843 142.838 178.05 142.838 178.256 142.838H181.548C181.961 142.838 182.579 142.838 182.579 142.631H182.166C181.755 142.631 180.931 142.631 180.931 141.19V135.015C180.931 134.809 181.137 134.809 181.137 134.809H183.196C183.401 134.809 183.401 134.809 183.607 135.015C185.255 137.28 187.107 140.368 188.753 142.014C189.989 143.456 191.841 143.867 193.076 143.867C193.282 143.867 193.693 143.867 193.693 143.66H193.486C192.665 143.456 191.84 143.249 191.429 142.839C190.399 142.221 189.782 141.191 189.371 140.574L185.459 134.81C185.255 134.605 185.049 134.399 185.049 134.193C185.255 133.782 187.107 132.753 187.107 130.694C187.107 129.459 186.695 128.635 186.284 128.224C185.049 126.783 183.196 126.989 181.962 126.989C181.548 126.987 180.52 127.192 180.108 127.192ZM185.459 131.103C185.459 132.545 185.049 134.191 183.196 134.191H181.344C180.931 134.191 180.931 134.191 180.931 133.78V128.223C180.931 127.606 181.344 127.606 181.755 127.399C182.578 127.399 183.401 127.606 184.018 128.016C185.049 128.634 185.459 129.869 185.459 131.103ZM195.546 127.399C195.341 127.399 195.341 127.399 195.341 127.193H199.868C199.868 127.399 199.664 127.399 199.664 127.399C199.251 127.399 198.222 127.399 198.222 128.634V140.368C198.222 141.397 198.222 142.631 199.457 142.631H199.868C199.868 142.838 199.664 142.838 198.633 142.838H195.134C195.134 142.631 195.341 142.631 195.545 142.631C196.162 142.631 196.78 142.425 196.78 141.602V128.634C196.78 127.812 196.37 127.399 195.546 127.399Z" fill="#0C0E0F"/>
<path fill-rule="evenodd" clip-rule="evenodd" d="M203.779 127.399C203.575 127.399 203.368 127.399 203.368 127.193H207.072C207.072 127.399 207.072 127.399 206.661 127.399C206.044 127.399 205.631 127.812 205.22 128.223C203.574 129.869 201.926 131.928 200.073 133.78C200.073 133.78 199.867 133.986 199.867 134.191L200.28 134.604C200.28 134.808 204.808 140.778 205.014 140.985C205.22 141.189 205.837 142.013 206.661 142.424C207.072 142.631 207.279 142.631 207.483 142.631C207.69 142.631 207.69 142.631 207.69 142.837H203.778C203.778 142.631 204.191 142.631 204.191 142.424L203.985 142.22C203.367 140.985 199.456 136.045 198.838 135.425C198.632 135.015 198.427 135.015 198.427 134.808C198.427 134.604 198.632 134.397 199.044 133.986C200.486 132.339 202.749 129.869 203.778 128.634C203.985 128.429 204.396 128.017 204.396 127.812C204.396 127.399 203.985 127.399 203.779 127.399ZM106.006 135.015C106.006 130.282 109.094 126.782 113.21 126.782C117.327 126.782 120.62 130.487 120.62 135.015C120.62 139.544 117.532 143.042 113.416 143.042C109.299 143.042 106.006 139.544 106.006 135.015ZM108.064 136.456C109.299 140.778 112.387 143.042 115.268 142.22C118.356 141.396 119.797 137.898 118.561 133.573C117.326 129.046 114.444 126.78 111.357 127.605C108.27 128.634 106.829 132.134 108.064 136.456ZM87.0688 135.015C87.0688 130.282 90.1565 126.782 94.2732 126.782C98.3906 126.782 101.684 130.487 101.684 135.015C101.684 139.544 98.5961 143.042 94.4794 143.042C90.362 143.042 87.0688 139.544 87.0688 135.015ZM89.1267 136.456C90.362 140.778 93.4497 143.042 96.5365 142.22C99.4188 141.396 100.859 137.898 99.6242 133.573C98.3898 129.046 95.5076 126.78 92.4199 127.605C89.333 128.634 87.8923 132.134 89.1267 136.456ZM86.039 122.665H82.9513C82.5396 122.665 82.1286 122.459 82.1286 122.665C82.1286 122.87 82.3341 122.87 82.3341 122.87C82.9513 122.87 83.3631 123.076 83.3631 123.901C83.3631 124.312 83.3631 124.93 83.1568 125.547C81.0989 130.9 79.0401 135.839 77.1877 140.162C76.1579 137.28 75.1289 134.192 74.1 131.311C75.1289 128.841 76.1587 126.577 76.9822 124.518C77.5994 123.283 78.2174 122.87 78.6284 122.87C79.0401 122.87 79.0401 122.87 79.0401 122.665C79.0401 122.459 78.8338 122.459 78.4221 122.665H75.5407C74.9226 122.665 74.5117 122.459 74.5117 122.87H74.9226C75.3344 122.87 75.7461 123.076 75.7461 123.901C75.9516 124.312 75.7461 124.93 75.5398 125.547C74.9218 127.193 74.3046 128.635 73.6874 130.282C72.8647 127.606 72.2467 125.34 71.8349 123.901C71.6295 123.284 71.8349 123.077 72.2467 122.87C72.6584 122.87 72.8639 123.076 73.0693 122.87H73.2756C73.2756 122.459 72.6584 122.665 72.2467 122.665H68.7472C68.3355 122.665 67.9237 122.665 67.9237 122.87C67.9237 122.87 68.13 123.076 68.3355 122.87C69.159 122.87 69.5707 123.487 69.9825 124.105L72.8647 132.752L69.777 140.162C67.5128 134.192 65.0423 126.988 64.2197 123.901C64.0134 123.284 64.2197 123.077 64.6314 122.87C65.0432 122.87 65.2486 123.076 65.4541 123.076L65.6604 122.87C65.6604 122.459 65.2486 122.665 64.6306 122.665H61.1311C60.7194 122.665 60.3076 122.665 60.3076 122.87C60.3076 122.87 60.5139 123.076 60.7194 123.076C61.5429 122.87 61.9538 123.487 62.1601 124.105L68.7472 142.425C68.7472 142.632 68.7472 143.042 69.159 143.042C69.3644 143.042 69.5699 142.838 69.7762 142.425C70.5997 139.956 71.8349 136.868 73.2756 133.78L76.1579 142.425C76.1579 142.632 76.3642 143.042 76.5696 143.042C76.7759 143.042 76.9814 142.838 77.1877 142.425C79.2464 137.485 82.3333 129.664 84.5975 124.518C85.0092 123.283 85.6264 122.87 86.2436 122.87C86.4499 122.87 86.6554 122.87 86.6554 122.665C86.6562 122.459 86.4508 122.459 86.039 122.665Z" fill="#0C0E0F"/>
</svg>
