<svg xmlns="http://www.w3.org/2000/svg" viewBox="0 0 128 128">
	<defs>
		<linearGradient id="hero-gradient" x1="0%" y1="0%" x2="100%" y2="100%">
			<stop offset="0%" stop-color="#e6c84a"/>
			<stop offset="40%" stop-color="#ff5a5a"/>
			<stop offset="100%" stop-color="#6b47dc"/>
		</linearGradient>
		<mask id="eye-mask">
			<rect width="128" height="128" fill="white"/>
			<path fill="black" transform="rotate(10 52 72)" d="M16 60l36 12-30 16z"/>
			<path fill="black" transform="rotate(-10 76 72)" d="M112 60l-36 12 30 16z"/>
		</mask>
	</defs>
	<path fill="url(#hero-gradient)" mask="url(#eye-mask)" d="M64 2C30 2 8 32 8 58c0 22 14 38 32 48 8 6 16 12 24 16 8-4 16-10 24-16 18-10 32-26 32-48 0-26-22-56-56-56z"/>
</svg>
