<svg width="100%" height="100%" viewBox="0 0 120 120" fill="none" xmlns="http://www.w3.org/2000/svg">
    <path fill-rule="evenodd" clip-rule="evenodd"
          d="M20 42.9961C20 42.9961 20 32.3454 20 29.1501C20 23.1751 21.3368 19.4154 29.379 19.4154C37.4213 19.4154 85.14 19 90.7973 19C97.7487 19 98.8931 23.8248 98.8931 29.1608C98.8931 31.9513 99 42.3038 99 42.3038L20 42.9961ZM39.988 52.7096C48.105 52.7096 48.3082 65.4904 40.5441 65.4904C31.3361 65.4478 32.0099 52.7096 39.988 52.7096ZM40.5441 84.4701C31.3361 84.4701 31.9885 71.6892 39.988 71.6892C47.9874 71.6892 48.3082 84.4701 40.5441 84.4701ZM59.7941 52.7096C67.9112 52.7096 68.1144 65.4904 60.3502 65.4904C51.1851 65.4478 51.8588 52.7096 59.8369 52.7096H59.7941ZM60.3502 84.4701C51.1423 84.4701 51.7946 71.6892 59.7941 71.6892C67.7936 71.6892 68.1572 84.4701 60.393 84.4701H60.3502ZM79.6002 52.7096C87.728 52.7096 87.9312 65.4904 80.1671 65.4904C71.0447 65.4478 71.7184 52.7096 79.6858 52.7096H79.6002ZM27.3685 49.067L27.8283 91.8191C27.8283 91.8191 57.1098 90.9031 65.1413 90.9031C80.7125 90.9031 75.6968 74.8737 75.6968 74.8737L92.4657 74.3945L92.6047 49.067H98.2407L98.7754 100.254L20.909 101L21.1443 49.067H27.3685Z"
          fill="currentColor" />
</svg>
