<svg width="64" height="64" viewBox="0 0 120 120" fill="none" xmlns="http://www.w3.org/2000/svg">
    <path fill-rule="evenodd" clip-rule="evenodd"
          d="M96.98 42.58L105.6 50.47L105.13 110.13L15 109.5L15.2 50.5L25.96 41.87L27.3 9L97.72 11.84L96.98 42.58ZM20.65 59.3L21.3 103.69L98.99 103.57L98.69 60.76L60.3 85.61L20.65 59.3ZM32.65 15.17L31.65 58.55L59.73 77.98L90.22 58.69L91.52 18.18L32.65 15.17ZM40.65 32.95V26.2L84 28.51L83.24 34.33L40.65 32.95ZM81.39 48.59L40.61 46.42V40.56L82.3 41.9L81.39 48.59ZM65.08 61.14L40.49 59.81V53.12L66.49 55.23L65.08 61.14Z"
          fill="currentColor"/>
</svg>
