<svg id="Слой_1" data-name="Слой 1" xmlns="http://www.w3.org/2000/svg" viewBox="0 0 150 190"><defs><style>.cls-1{fill-rule:evenodd;}</style></defs><title>Монтажная область 2</title><path class="cls-1" d="M121.28,131.25l-11.35-3.17,5.44-12.15,9.34,6.51ZM99.6,74.88l.66,2.05,13.06-.13,0,6.16-10.2,2.8,1.29,4c6.94,21,3.82,32.41-.93,38.52l7.41,12.06-6.35,6L91.66,135.18l-25.72-.7c6.48,18.11,9.28,19.93,16.4,19.93l.88-5.43,16.23,5s-6.26,7.49-19.26,7.49-17.65-13.09-24.3-34c-2.52-8.11-3.8-11.1-3.46-10-5-15.25-7.15-20.19-13.68-20.19-4.2,0-6.1,2.63-6.1,5a4.33,4.33,0,0,0,1.47,3.26,6.74,6.74,0,0,0,2.21,1.26L44.12,108c4.94,10.83,12.62,38.92,12.62,38.92h-7l-4-8.73L40.58,142l-2,4.94H29.5l1.26-13.36c9.47,0,9.05-9.68,8.94-18.83-5.47-.11-8.73-2-10.52-3.68a11.68,11.68,0,0,1-3.89-8.73c0-6,4.73-12.42,13.46-12.42,10.7,0,14.76,7.82,18.77,19.4L88.29,114l1.63-12.9-27.69,1.75-.51-8,15.94-2.4c0-6.76-3.06-11.75-13-11.75l-4,6.28L54.14,72.12l59.26-8.76,0,6.88ZM88.25,74.2,77.1,75.81C78.66,82.19,88.68,81,88.25,74.2ZM42.41,66.54c-.85,3.79,2.42,6.63,5.89,6.42l-1.37,2.73c-15,3.69-20.3-8.1-16.62-14.2l4.42,1.68,1.68-14.83L44.72,58l5.68-6,3.37,13.26-3.16,2.84Z"/></svg>