<svg width="100" height="114" viewBox="0 0 100 114" fill="none" xmlns="http://www.w3.org/2000/svg">
    <path fill-rule="evenodd" clip-rule="evenodd" d="M96.28 83.25L84.93 80.08L90.37 67.93L99.71 74.44L96.28 83.25ZM74.6 26.88L75.26 28.93L88.32 28.8V34.96L78.12 37.76L79.41 41.76C86.35 62.76 83.23 74.17 78.48 80.28L85.89 92.34L79.54 98.34L66.66 87.18L40.94 86.48C47.42 104.59 50.22 106.41 57.34 106.41L58.22 100.98L74.45 105.98C74.45 105.98 68.19 113.47 55.19 113.47C42.19 113.47 37.54 100.38 30.89 79.47C28.37 71.36 27.09 68.37 27.43 69.47C22.43 54.22 20.28 49.28 13.75 49.28C9.54999 49.28 7.64999 51.91 7.64999 54.28C7.64872 54.8967 7.77921 55.5066 8.03272 56.0688C8.28624 56.6311 8.65693 57.1326 9.11999 57.54C9.77 58.0965 10.52 58.5241 11.33 58.8L19.12 60C24.06 70.83 31.74 98.92 31.74 98.92H24.74L20.74 90.19L15.58 94L13.58 98.94H4.49999L5.75999 85.58C15.23 85.58 14.81 75.9 14.7 66.75C9.22999 66.64 5.96999 64.75 4.17999 63.07C2.95268 61.9714 1.9716 60.6257 1.30118 59.1211C0.630763 57.6165 0.286159 55.9872 0.289994 54.34C0.289994 48.34 5.01999 41.92 13.75 41.92C24.45 41.92 28.51 49.74 32.52 61.32L63.29 66L64.92 53.1L37.23 54.85L36.72 46.85L52.66 44.45C52.66 37.69 49.6 32.7 39.66 32.7L35.66 38.98L29.14 24.12L88.4 15.36V22.24L74.6 26.88ZM63.25 26.2L52.1 27.81C53.66 34.19 63.68 33 63.25 26.2ZM17.41 18.54C16.56 22.33 19.83 25.17 23.3 24.96L21.93 27.69C6.92999 31.38 1.62999 19.59 5.30999 13.49L9.72999 15.17L11.41 0.34L19.72 10L25.4 4L28.77 17.26L25.61 20.1L17.41 18.54Z" fill="black"/>
</svg>
