<svg width="114" height="97" viewBox="0 0 114 97" fill="none" xmlns="http://www.w3.org/2000/svg">
	<path fill-rule="evenodd" clip-rule="evenodd" d="M95.506 82.542L107.512 91.796L104.502 95.9L92.189 87.418L81.261 96.012L77.687 92.232L89.187 82.343L89.429 63.597C89.429 53.429 85.176 45.827 78.004 39.995L106.652 34.107L108.127 40.748L105.082 41.66L108.923 58.898L112.062 58.703L113.292 65.589L95.382 69.382L95.506 82.542ZM94.262 31.756L89.261 32.798L89.298 24.112C81.15 25.766 73.68 25.527 72.609 21.841C71.372 17.581 79.919 12.727 89.359 9.822L89.4 0.172001L93.731 0.445999L93.87 8.6C102.513 6.577 110.732 6.498 111.831 10.284C113.204 15.009 103.976 20.126 94.113 22.937L94.262 31.756ZM57.396 93.14C18.773 93.14 20.521 37.954 56.778 37.954C92.898 37.954 92.671 93.14 57.396 93.14ZM24.181 30.141L24.253 37.978L35.32 40.23C27.941 46.398 24.286 55.752 24.348 65.127L24.603 82.343L36.103 92.617L32.272 95.627L21.6 87.418L9.28699 95.9L6.27699 91.796L18.283 82.542L18.407 69.5L0.890991 66.057L2.11999 59.17L5.54899 59.93L9.38199 42.12L6.05499 41.217L7.53099 34.576L19.193 36.949L19.328 29.699C9.51299 28.432 0.237991 24.986 0.728991 20.552C1.19699 16.326 10.182 15.041 19.587 15.763L19.682 10.627L24.006 10.901L24.055 16.254C33.379 17.588 41.844 20.778 41.387 24.901C40.914 29.147 32.943 30.604 24.181 30.141Z" fill="black"/>
</svg>
