<?xml version="1.0" encoding="utf-8"?>
<!-- Generator: Adobe Illustrator 16.0.0, SVG Export Plug-In . SVG Version: 6.00 Build 0)  -->
<!DOCTYPE svg PUBLIC "-//W3C//DTD SVG 1.1//EN" "http://www.w3.org/Graphics/SVG/1.1/DTD/svg11.dtd" [
	<!ENTITY ns_flows "http://ns.adobe.com/Flows/1.0/">
	<!ENTITY ns_extend "http://ns.adobe.com/Extensibility/1.0/">
	<!ENTITY ns_ai "http://ns.adobe.com/AdobeIllustrator/10.0/">
	<!ENTITY ns_graphs "http://ns.adobe.com/Graphs/1.0/">
]>
<svg version="1.1" id="Слой_1" xmlns:x="&ns_extend;" xmlns:i="&ns_ai;" xmlns:graph="&ns_graphs;"
	 xmlns="http://www.w3.org/2000/svg" xmlns:xlink="http://www.w3.org/1999/xlink" xmlns:a="http://ns.adobe.com/AdobeSVGViewerExtensions/3.0/"
	 x="0px" y="0px" width="150px" height="190px" viewBox="0 0 150 190" enable-background="new 0 0 150 190" xml:space="preserve">
<path fill-rule="evenodd" clip-rule="evenodd" d="M113.506,136.542l12.006,9.254l-3.01,4.104l-12.313-8.482l-10.928,8.594
	l-3.574-3.78l11.5-9.889l0.242-18.746c0-10.168-4.253-17.77-11.425-23.602l28.648-5.888l1.475,6.641l-3.045,0.912l3.841,17.238
	l3.139-0.195l1.23,6.886l-17.91,3.793L113.506,136.542z M112.262,85.756l-5.001,1.042l0.037-8.686
	c-8.148,1.654-15.618,1.415-16.689-2.271c-1.237-4.26,7.31-9.114,16.75-12.019l0.041-9.65l4.331,0.274l0.139,8.154
	c8.643-2.023,16.862-2.102,17.961,1.684c1.373,4.725-7.855,9.842-17.718,12.653L112.262,85.756z M75.396,147.14
	c-38.623,0-36.875-55.186-0.618-55.186C110.898,91.954,110.671,147.14,75.396,147.14z M42.181,84.141l0.072,7.837L53.32,94.23
	c-7.379,6.168-11.034,15.522-10.972,24.897l0.255,17.216l11.5,10.274l-3.831,3.01l-10.672-8.209l-12.313,8.482l-3.01-4.104
	l12.006-9.254l0.124-13.042l-17.516-3.443l1.229-6.887l3.429,0.76l3.833-17.81l-3.327-0.903l1.476-6.641l11.662,2.373l0.135-7.25
	c-9.815-1.267-19.09-4.713-18.599-9.147c0.468-4.226,9.453-5.511,18.858-4.789l0.095-5.136l4.324,0.274l0.049,5.353
	c9.324,1.334,17.789,4.524,17.332,8.647C58.914,83.147,50.943,84.604,42.181,84.141z"/>
</svg>
